<?xml version="1.0" standalone="no"?>
<!DOCTYPE svg PUBLIC "-//W3C//DTD SVG 20010904//EN"
 "http://www.w3.org/TR/2001/REC-SVG-20010904/DTD/svg10.dtd">
<svg version="1.0" xmlns="http://www.w3.org/2000/svg"
 width="880.000000pt" height="880.000000pt" viewBox="0 0 880.000000 880.000000"
 preserveAspectRatio="xMidYMid meet">
<metadata>
Created by potrace 1.14, written by Peter Selinger 2001-2017
</metadata>
<g transform="translate(0.000000,880.000000) scale(0.100000,-0.100000)"
fill="#000000" stroke="none">
<path d="M3750 8785 c-871 -120 -1544 -792 -1664 -1663 -14 -98 -16 -296 -16
-1482 l0 -1370 -47 0 c-204 -1 -437 -155 -532 -352 -55 -114 -74 -207 -68
-328 6 -106 25 -177 69 -265 63 -124 169 -230 293 -290 133 -65 134 -65 815
-65 l615 0 241 93 c149 58 269 110 315 139 302 189 539 532 638 926 45 180 56
285 56 562 -1 451 -44 681 -196 1027 -161 366 -220 542 -264 777 -37 204 -49
351 -48 611 0 195 4 267 22 383 39 255 103 467 203 666 110 219 220 369 392
534 58 55 106 103 106 106 0 12 -834 4 -930 -9z"/>
<path d="M5245 8677 c-200 -78 -300 -144 -449 -294 -356 -361 -504 -860 -456
-1538 25 -344 69 -505 259 -941 165 -380 232 -685 247 -1124 15 -458 -67 -857
-246 -1199 -106 -200 -256 -393 -410 -526 l-93 -80 209 -3 c115 -1 736 -1
1379 0 l1170 3 80 28 c264 94 427 308 442 583 4 75 1 120 -11 178 -61 271
-298 483 -563 503 l-73 6 0 1373 c0 1505 1 1472 -60 1708 -139 538 -509 995
-1006 1244 -84 42 -245 107 -285 116 -15 3 -66 -11 -134 -37z"/>
<path d="M5240 2576 c-349 -74 -627 -324 -733 -662 -149 -472 78 -981 528
-1185 289 -131 680 -101 929 70 l46 32 0 -323 c0 -343 4 -379 47 -437 48 -62
159 -90 236 -57 42 17 93 76 107 123 8 27 10 275 8 843 -3 801 -4 805 -26 885
-97 342 -355 603 -688 696 -100 28 -352 36 -454 15z m385 -416 c225 -86 370
-279 382 -510 7 -120 -7 -188 -59 -292 -97 -192 -297 -317 -510 -318 -219 0
-424 127 -517 323 -45 95 -61 161 -61 255 1 253 174 479 425 554 86 26 257 20
340 -12z"/>
<path d="M2890 2200 c-132 -21 -236 -74 -331 -171 -180 -181 -219 -461 -97
-692 42 -79 155 -193 233 -234 95 -50 167 -67 280 -67 115 0 185 17 286 70
116 61 236 204 276 329 21 67 29 243 13 314 -42 193 -206 371 -395 430 -74 23
-192 32 -265 21z"/>
</g>
</svg>
